<svg viewBox="0 0 804.323 396.309" height="396.309" width="804.323" xmlns="http://www.w3.org/2000/svg" data-name="Layer 2" id="b">
  <g data-name="Layer 1" id="c">
    <g>
      <polygon fill="#fff" points="675.138 79.32 675.138 0 660.716 0 660.716 79.32 667.927 86.532 675.138 79.32"></polygon>
      <polygon fill="#fff" points="660.716 93.743 653.505 86.532 574.185 86.532 574.185 100.954 653.505 100.954 660.716 93.743"></polygon>
      <polygon fill="#fff" points="660.716 108.164 660.716 187.485 675.138 187.485 675.138 108.164 667.927 100.954 660.716 108.164"></polygon>
      <polygon fill="#fff" points="682.349 100.954 761.67 100.954 761.67 86.532 682.349 86.532 675.138 93.743 682.349 100.954"></polygon>
      <rect fill="#fff" height="4.302" width="2.345" y="279.737" x="279.746"></rect>
      <rect fill="#fff" height="4.302" width="2.345" y="279.737" x="284.404"></rect>
      <rect fill="#fff" height="4.302" width="2.345" y="279.737" x="289.062"></rect>
      <rect fill="#fff" height="4.302" width="2.345" y="279.737" x="293.72"></rect>
      <rect fill="#fff" height="4.302" width="2.345" y="279.737" x="298.377"></rect>
      <rect fill="#fff" height="4.302" width="2.345" y="279.737" x="303.036"></rect>
      <rect fill="#fff" height="4.302" width="2.345" y="279.737" x="307.693"></rect>
      <rect fill="#fff" height="4.302" width="2.345" y="279.737" x="312.352"></rect>
      <rect fill="#fff" height="4.302" width="2.345" y="279.737" x="317.009"></rect>
      <rect fill="#fff" height="4.302" width="2.345" y="279.737" x="321.667"></rect>
      <rect fill="#fff" height="4.302" width="2.345" y="279.737" x="326.325"></rect>
      <rect fill="#fff" height="4.302" width="2.345" y="279.737" x="330.983"></rect>
      <rect fill="#fff" height="4.302" width="2.345" y="279.737" x="335.641"></rect>
      <rect fill="#fff" height="4.302" width="2.345" y="279.737"></rect>
      <path fill="#fff" d="M1.667,259.906c-.164.213-.469.608-.532.648l.031.047v.106h28.931c.221,0,.444-.004.667-.009s.447-.009.67-.009c.249,0,.465.006.662.018.723.043,1.378.412,1.709.962.262.434.29.932.079,1.405l-.947.945c-1.57,1.568-3.141,3.136-4.707,4.708-.257.257-.531.517-.822.791-1.406,1.327-3,2.832-3.123,4.785-.034.537-.022,1.087-.011,1.62.006.268.011.535.011.801v.87h-7.543c-.106,0-.316.091-1.005.798-.02.021-.032.034-.037.038-.775.712-1.522,1.45-2.213,2.142-.689.689-1.426,1.434-2.142,2.214-.04.043-.134.166-.254.321-.164.212-.469.608-.532.648l.031.047v.107h11.555c.695,0,1.257-.126,1.787-.405l-.158.307.407-.446-.031-.028.007-.008h.003s.02.033.02.033c.51-.32.962-.758,1.536-1.313l.191-.185c.358-.345.743-.692,1.15-1.059,1.199-1.082,2.439-2.199,3.208-3.462.303-.498.316-.91.332-1.431v-.025c.025-.783.023-1.566.017-2.297l4.629-4.629,4.173-4.173c.099-.029.2-.043.301-.043.338,0,.659.163.858.436.183.251.234.551.145.847l-.653.653c-.918.917-1.836,1.835-2.753,2.753l-.046.046c-.639.64-1.301,1.303-1.936,1.969l-.161.169c-.971,1.016-1.298,1.358-1.278,2.784.039,2.685.983,5.028,2.731,6.776.85.85,1.848,1.522,2.965,1.997,1.253.532,2.304.813,3.041.813.232,0,.438-.028.611-.082.541-.169,1.131-.819,1.605-1.341.158-.174.307-.338.43-.457.456-.439.902-.883,1.24-1.219l.442-.442.224-.223,6.972-6.972,6.095-6.095.089-.089c2.893-2.871,2.893-3.075,2.894-3.152,0-.028-.01-.054-.029-.072l-.023-.024-.047-.004c-.234,0-1.885,1.614-3.229,2.967l-.014.014-7.21,7.211-3.581,3.581c-2.742-.083-5.367-1.432-7.025-3.611-1.604-2.107-1.847-4.473-1.866-6.718l1.193-1.193.811-.811.604-.602c.585-.583,1.19-1.187,1.778-1.789.154-.157.358-.342.575-.539.792-.717,1.777-1.609,1.91-2.497.055-.368-.042-.718-.272-.985-.241-.28-.598-.44-.981-.44-.146,0-.291.023-.432.07-1.021.336-1.973,1.411-2.812,2.36-.282.318-.548.619-.792.862l-.172.172-.139.139c-.438.438-.876.875-1.314,1.314l-.633.633-3.193,3.193-3.194,3.193-2.534,2.535c-.005-.464-.009-.928-.009-1.391,0-.368-.008-.745-.015-1.109-.015-.732-.03-1.489.015-2.222.022-.36.09-.675.14-.904.04-.184.064-.293.055-.365l3.13-3.13,2.375-2.374.179-.179.346-.346c.252-.253.548-.522.861-.807.997-.904,2.126-1.93,2.535-3.061.214-.592.163-1.157-.147-1.633-.359-.551-1.027-.91-1.786-.962-1.49-.102-3.132-.151-5.02-.151-1.686,0-3.403.038-5.063.076-1.646.037-3.348.075-5.005.075H7.318c-.106,0-.316.091-1.005.798-.02.02-.032.033-.037.038-.775.712-1.522,1.45-2.213,2.142-.689.689-1.426,1.434-2.142,2.213-.04.043-.134.166-.254.321Z"></path>
      <path fill="#fff" d="M104.207,276.857l14.26-14.26.111-.111.546-.547c.192-.11.38-.198.56-.262.667-.237,1.485-.347,2.574-.347h0c.616,0,1.241.034,1.845.067.567.031,1.103.061,1.6.061h18.663c.106,0,.316-.09,1.005-.797.02-.02.033-.034.038-.038.774-.711,1.521-1.449,2.214-2.142.689-.689,1.426-1.435,2.141-2.214.04-.043.135-.166.254-.321.164-.212.469-.608.531-.648l-.031-.047v-.106c-2.571,0-5.187-.016-7.717-.031-2.531-.015-5.148-.031-7.721-.031-2.887,0-5.411.021-7.718.062-2.37.043-4.017,1.761-5.609,3.423-.277.289-.539.562-.806.828-.597.595-1.193,1.191-1.789,1.789l-.891.891-10.654,10.654-2.093,2.093-2.766,2.766c-2.743-.083-5.367-1.432-7.025-3.611-1.604-2.107-1.847-4.473-1.865-6.718l.99-.99,1.014-1.014.604-.603c.585-.583,1.19-1.187,1.777-1.788.154-.157.358-.342.575-.539.792-.717,1.777-1.609,1.91-2.497.056-.368-.041-.718-.272-.985-.241-.28-.598-.44-.981-.44-.146,0-.292.023-.433.07-1.02.336-1.972,1.411-2.812,2.36-.282.318-.548.619-.793.862l-.173.173-.138.139c-.439.438-.877.877-1.316,1.316l-.63.631-3.194,3.193-3.194,3.193-1.34,1.341-1.203,1.203v-5.806l4.663-4.663,4.687-4.687c.688-.689,1.425-1.434,2.141-2.214.04-.043.135-.166.254-.321.164-.212.469-.607.531-.648l-.031-.046v-.107h-10.054c-.258,0-.529-.01-.815-.021-.301-.011-.612-.023-.922-.023-.662,0-1.51.046-2.206.404-1.212.623-2.24,1.717-3.233,2.776-.307.327-.596.635-.886.925-.402.401-.804.803-1.206,1.206l-.61.61-.091.091c-2.89,2.869-2.891,3.065-2.891,3.15,0,.028.01.054.029.073l.023.023.047.005c.228,0,1.787-1.518,3.106-2.845,0,.003,0,.006,0,.009l.004.038.032.021c.028.018.064.025.119.025.138,0,.384-.053.6-.099.125-.027.243-.052.287-.055.368-.021.772-.032,1.236-.032.415,0,.838.008,1.248.016.407.008.829.016,1.24.016h8.349l-1.022,1.022-4.637,4.637-1.112,1.111c-.738.737-1.477,1.475-2.213,2.214-.22.221-.491.458-.777.708-.948.831-2.129,1.864-2.205,3.036-.047.713-.031,1.447-.016,2.156.007.351.015.714.015,1.068v.937h-1.743c-.106,0-.316.091-1.005.798-.02.021-.033.034-.037.038-.775.712-1.522,1.45-2.213,2.142-.689.689-1.426,1.434-2.142,2.214-.04.043-.134.166-.254.321-.164.212-.469.608-.531.648l.031.047v.107h7.976c.106,0,.316-.091,1.005-.797.02-.021.033-.034.038-.038.774-.711,1.521-1.449,2.213-2.142.689-.689,1.426-1.435,2.142-2.213.043-.047.111-.111.188-.184.354-.335.646-.63.646-.859v-.808l3.236-3.236c-.297,1.958.537,4.4,1.478,5.9,1.286,2.05,3.366,3.55,5.707,4.116l.115.028c.492.12.956.232,1.413.232.463,0,.856-.122,1.2-.373.753-.549,1.429-1.255,2.082-1.938.237-.248.482-.504.723-.744.89-.886,1.777-1.775,2.665-2.663l1.333-1.335ZM91.312,269.093l-.265.265c-.17.17-.341.34-.511.511-.208.208-.474.445-.757.696-.646.574-1.379,1.224-1.834,1.897l-3.689,3.687v-2.543l1.748-1.748,7.071-7.07c.099-.029.2-.043.3-.043.338,0,.659.163.858.436.183.251.234.551.145.847l-1.013,1.012-2.053,2.053Z"></path>
      <path fill="#fff" d="M68.152,283.113c.02-.021.033-.034.038-.038.774-.711,1.521-1.449,2.213-2.142.689-.689,1.426-1.435,2.142-2.213.04-.044.134-.166.254-.321.164-.212.469-.607.531-.648l-.031-.047v-.107h-9.634l.263-.253c2.776-2.681,5.646-5.453,8.187-8.394.574-.665,1.109-1.395.813-2.353-.245-.791-.966-1.322-1.795-1.323-.16,0-.32.021-.476.061-1.096.285-2.069,1.35-2.929,2.29-.247.271-.48.526-.699.742-.254.251-.507.503-.76.756-1.31,1.308-2.618,2.617-3.926,3.926l-1.963,1.963-2.562,2.562c-.027.004-.054.006-.081.006-.191,0-.374-.087-.501-.238-.117-.139-.17-.317-.147-.491l2.654-2.652c3.842-3.838,7.815-7.807,11.715-11.719.136-.137.3-.295.482-.471,1.397-1.35,3.737-3.608,3.463-5.493-.107-.737-.613-1.346-1.503-1.809-.589-.307-1.384-.449-2.499-.449-.587,0-1.177.038-1.748.075-.492.032-.957.062-1.356.062h-7.529c-2.394,0-3.878,1.545-5.45,3.181-.256.267-.522.543-.79.811-2.189,2.184-4.375,4.372-6.561,6.559-1.1,1.101-2.2,2.202-3.3,3.302l-.092.091c-2.89,2.869-2.89,3.066-2.891,3.15,0,.028.01.054.029.073l.023.023.047.005c.235,0,1.886-1.615,3.23-2.969l.012-.013,2.841-2.841,2.542-2.542,1.202-1.203,1.182-1.182c.054-.006.125-.018.21-.032.188-.032.444-.075.766-.099.778-.059,1.637-.087,2.626-.087.885,0,1.787.022,2.659.044.865.021,1.76.043,2.63.043.377,0,.824-.025,1.298-.053.551-.031,1.176-.067,1.789-.067,1.695,0,3.705.232,4.206,2.038.082.296.062.56.042.839-.011.152-.023.309-.019.475l-.049.157-.052.164-.025.081-.579.579-7.386,7.386-6.135,6.135-.281.281c-.789.788-1.604,1.603-2.379,2.432-.042.045-.099.103-.167.17-.46.461-1.316,1.32-1.192,1.971.045.236.214.42.501.545.108.047.225.071.348.071.862,0,1.878-1.158,2.551-1.924.169-.193.316-.36.423-.464,2.852-2.788,5.711-5.666,8.476-8.448l1.311-1.319c.204-.083.415-.125.627-.125.565,0,1.113.302,1.432.789.296.453.346.994.136,1.487l-6.668,6.668c-.689.689-1.426,1.435-2.142,2.214-.04.043-.134.166-.254.321-.164.212-.469.608-.531.648l.031.047v.107h10.15c.106,0,.316-.091,1.005-.797Z"></path>
      <path fill="#fff" d="M163.738,274.609c-1.176,1.174-2.352,2.347-3.523,3.525l-.339.34c-.764.766-1.555,1.557-2.27,2.391l-.059.069c-.345.4-.701.814-.736,1.381-.056.905.569,1.501,1.673,1.595.435.037.915.055,1.469.055.495,0,.999-.014,1.486-.028.48-.013.977-.027,1.457-.027,1.143,0,2.323.032,3.464.064,1.156.032,2.352.064,3.524.064,1.312,0,2.45-.042,3.48-.129,1.875-.158,3.352-1.784,4.656-3.219.336-.37.655-.72.969-1.034l1.241-1.241,2.482-2.482,4.473-4.473,3.579-3.578.09-.09c2.892-2.87,2.892-3.074,2.892-3.151,0-.028-.01-.054-.029-.073l-.024-.023-.047-.004c-.234,0-1.886,1.614-3.229,2.968l-.013.013-5.845,5.845-3.887,3.887c-.66.329-1.408.373-2.055.373-.253,0-.511-.008-.76-.015-.244-.007-.496-.016-.738-.016h-11.505c-.121,0-.244.005-.369.009s-.25.009-.374.009c-.137,0-.254-.006-.359-.018-.518-.059-.969-.328-1.208-.722-.188-.312-.222-.672-.094-1.017l2.211-2.21.652-.652c.438-.438.877-.876,1.315-1.315.169-.17.398-.375.664-.613,1.412-1.266,3.775-3.384,2.433-5.091-.371-.472-.824-.711-1.345-.711-1.442,0-3.107,1.834-4.102,2.93-.211.233-.395.434-.537.576-.241.24-.48.48-.72.72l-.358.358-5.941,5.941-.6.6-1.181,1.181c-.027.004-.054.006-.081.006-.191,0-.374-.087-.501-.24-.117-.139-.17-.317-.146-.492l8.772-8.772,1.758-1.758c.578-.578,1.162-1.154,1.746-1.729,1.536-1.515,3.125-3.082,4.604-4.693l.12-.13c.759-.823,1.544-1.674,1.465-2.884-.086-1.313-1.136-2.375-2.442-2.471-.062-.005-.124-.007-.185-.007-1.285,0-2.279.975-3.155,1.834-.122.12-.241.236-.359.349-.703.67-1.393,1.359-2.06,2.026l-4.484,4.484h-6.971c-.106,0-.316.091-1.005.797-.02.021-.033.034-.037.038-.775.711-1.522,1.45-2.214,2.142s-1.425,1.434-2.141,2.213c-.04.043-.135.166-.254.321-.164.212-.469.607-.531.648l.031.047v.106h5.465c.16,0,.331.009.511.02.191.01.388.021.583.021.363,0,.637-.04.862-.123.773-.288,1.656-1.295,2.366-2.104.264-.301.514-.586.724-.795l.183-.184.144-.144c1.42-1.418,2.839-2.837,4.258-4.257l.815-.816c.375-.191.787-.292,1.192-.292.801,0,1.52.389,1.972,1.068.345.518.352.954.361,1.507.002.129.005.264.012.404l-.093.325-.03.104c-.03.03-.06.06-.089.09l-4.263,4.262-5.328,5.329c-.681.681-1.366,1.358-2.05,2.036-1.63,1.614-3.315,3.282-4.922,4.97l-.068.07c-1.231,1.257-1.757,2.138-1.565,2.618.098.245.373.376.815.392h.025c.498,0,.991-.493,1.351-.853.078-.078.15-.149.213-.208.755-.693,1.473-1.403,2.265-2.193.67-.667,1.338-1.336,2.006-2.006l1.01-1.011,5.877-5.877c.209-.087.426-.132.646-.132.565,0,1.113.302,1.432.788.296.453.346.994.136,1.487l-.705.704Z"></path>
      <path fill="#fff" d="M290.062,268.569c.04-.043.135-.166.254-.321.164-.212.469-.608.531-.648l-.031-.047v-.106h-7.616c-.428,0-.857-.004-1.286-.007-.43-.003-.86-.007-1.29-.007-.482,0-.904.005-1.29.015-2.077.052-3.617,1.671-4.975,3.1-.265.279-.516.542-.769.794-1.202,1.197-2.401,2.397-3.599,3.598-.602.603-1.204,1.205-1.806,1.807-.197.197-.394.395-.59.593l-.118.119c-.066.002-.16.019-.284.039-.198.034-.469.079-.799.101-.097.006-.205.01-.328.01-.111,0-.223-.002-.334-.005-.112-.002-.224-.005-.334-.005h-5.479s-.166,0-.166,0c-.625,0-2.284,0-2.692-.629-.123-.189-.122-.421.003-.708l1.144-1.144,1.154-1.154.789-.788c.525-.524,1.049-1.048,1.573-1.574.196-.197.456-.426.756-.692,1.296-1.147,3.254-2.882,2.766-4.491-.271-.894-.759-1.348-1.451-1.348-1.602,0-3.951,2.504-5.213,3.85-.23.246-.429.458-.581.609l-3.033,3.033-3.033,3.033-1.978,1.978c-.027.004-.054.006-.081.006-.191,0-.375-.087-.502-.24-.117-.139-.17-.317-.146-.492l16.388-16.388,2.728-2.728c.689-.689,1.425-1.435,2.141-2.214.04-.043.135-.166.254-.321.164-.212.469-.608.531-.648l-.031-.047v-.107h-4.48c-.18,0-.361-.004-.543-.008-.185-.005-.37-.009-.554-.009-.208,0-.389.006-.552.018-1.396.102-2.305.981-3.267,1.911-.099.096-.198.192-.298.287-1.801,1.715-3.581,3.514-5.302,5.253-.333.336-.665.672-.998,1.007l-.034-.014c-.021-.009-.046-.013-.077-.013-.127,0-.376.073-.617.143-.173.051-.353.103-.43.11-.084.008-.16.009-.237.011-.044.001-.089.002-.136.004-.264.011-.554.017-.886.017-.297,0-.594-.004-.892-.008-.297-.004-.594-.009-.89-.009h-18.958c-.106,0-.316.091-1.005.797-.02.021-.033.034-.037.038-.775.711-1.522,1.45-2.214,2.141-.689.689-1.426,1.435-2.142,2.214-.04.043-.134.166-.254.321-.164.212-.469.607-.531.648l.031.047v.106h14.512c.759,0,1.52.003,2.279.007.76.003,1.521.007,2.281.007.853,0,1.599-.004,2.281-.014,2.5-.034,4.247-1.922,5.937-3.749.376-.406.731-.79,1.094-1.153l3.459-3.458c.676-.336,1.47-.379,2.087-.379.283,0,.571.01.85.02.106.003.212.007.317.01l-8.395,8.394-8.503,8.503c-1.071,0-2.143.003-3.214.005-1.165.002-2.33.004-3.495.004-1.328,0-2.489-.003-3.55-.01-2.88-.017-5.336-1.049-7.104-2.983-2.065-2.26-2.373-4.982-2.396-7.354l2.004-2.003.603-.602c.585-.583,1.191-1.187,1.778-1.789.154-.157.359-.342.576-.539.792-.717,1.777-1.609,1.91-2.497.055-.368-.042-.718-.272-.985-.241-.28-.599-.44-.981-.44-.146,0-.292.023-.432.07-1.021.336-1.973,1.411-2.812,2.36-.282.318-.548.619-.793.862l-.175.175-.136.137c-.434.433-.868.867-1.301,1.301l-.646.646-3.193,3.193-3.194,3.193-2.509,2.509c-.02-.319-.035-.625-.035-.898v-4.873l9.349-9.349c.689-.689,1.426-1.435,2.142-2.214.04-.043.134-.166.254-.321.164-.212.469-.608.531-.648l-.031-.047v-.107c-.817,0-1.635-.002-2.454-.005-.818-.002-1.636-.005-2.455-.005-.918,0-1.721.003-2.455.01-2.861.026-4.972,2.35-6.835,4.399-.476.524-.926,1.02-1.384,1.478l-.091.09c-2.891,2.869-2.891,3.073-2.891,3.15,0,.028.01.054.029.073l.023.023.047.005c.064,0,.259,0,2.881-2.62.125-.014.309-.068.559-.167.364-.009.733-.034,1.09-.057.462-.03.941-.062,1.416-.062h5.925l-2.502,2.502-2.64,2.64-1.24,1.239c-.826.825-1.652,1.649-2.476,2.476l-.098.099c-.283.285-.567.569-.848.856-.163.167-.365.349-.579.541-.641.577-1.367,1.229-1.58,1.928-.041.133-.067.293-.082.488l-1.9,1.9-.96.96-.314.314-.614.614c-.035.011-.077.024-.125.041-.178.058-.446.146-.771.211-.583.117-1.236.17-2.057.17-.542,0-1.095-.023-1.63-.046-.538-.023-1.046-.045-1.546-.045-.076,0-.205.006-.373.014-.308.014-.73.034-1.191.034-1.4,0-2.244-.185-2.507-.55-.092-.127-.109-.276-.054-.455l2.25-2.25.818-.818c.55-.55,1.101-1.1,1.65-1.65.637-.639,1.211-1.216,1.787-1.821.116-.122.246-.25.382-.384.715-.706,1.605-1.584,1.586-2.599-.017-.867-.639-1.626-1.479-1.805-.124-.026-.249-.04-.372-.04-.873,0-1.571.648-2.187,1.22l-.151.14c-.917.843-1.812,1.738-2.677,2.604l-.293.293-2.965,2.965-2.965,2.965-1.28,1.28-.834.834c-.027.004-.054.006-.081.006-.19,0-.373-.087-.5-.238-.117-.139-.17-.316-.148-.49l3.262-3.259c4.232-4.227,8.609-8.598,12.902-12.909.534-.536,1.101-1.107,1.644-1.677.12-.126.256-.259.397-.398.675-.66,1.515-1.482,1.524-2.433.012-1.125-.791-1.757-2.26-1.78-.817-.013-1.711-.019-2.735-.019-.912,0-1.823.005-2.735.009-.912.005-1.822.01-2.733.01-.543,0-1.11-.023-1.711-.048-.622-.025-1.264-.051-1.901-.051-1.385,0-2.435.132-3.305.415-2.33.758-4.12,2.684-5.851,4.546-.474.509-.92.99-1.378,1.447l-5.778,5.778-5.778,5.778-.091.09c-2.891,2.869-2.891,3.073-2.891,3.15,0,.028.01.054.029.073l.024.024.047.004c.235,0,1.886-1.614,3.229-2.968l.013-.013,10.806-10.806c.364-.255.932-.609,1.516-.798.611-.198,1.29-.295,2.135-.308.818-.012,1.714-.017,2.737-.017.913,0,1.826.004,2.739.008s1.826.009,2.739.009h4.505c.79,0,1.799.328,2.198.956.213.336.227.714.038,1.125l-12.224,12.224-1.651,1.651-1.651,1.651c-.368.368-.776.739-1.172,1.098-.991.899-2.016,1.829-2.663,2.921-.256.433-.306.852-.136,1.15.126.222.364.349.652.349.232,0,.49-.082.748-.235.899-.539,1.675-1.38,2.425-2.194.291-.316.566-.614.847-.894.731-.729,1.46-1.459,2.19-2.189l1.089-1.089,3.652-3.652,1.815-1.815c.209-.088.426-.132.646-.132.565,0,1.113.302,1.432.788.296.453.345.994.135,1.487l-1.167,1.168-1.179,1.179-.828.827c-.547.547-1.095,1.094-1.641,1.641-.637.639-1.211,1.216-1.787,1.821-.086.09-.198.196-.328.318-.706.667-1.773,1.674-1.235,2.567.292.483,1.012.54,1.528.54.267,0,.535-.018.771-.033.191-.013.356-.023.49-.023h4.818c1.245,0,2.28-.054,3.311-.734,1.238-.817,2.304-1.931,3.335-3.008.319-.333.649-.678.976-1.005l1.274-1.274,3.693-3.693c.009.167.022.335.035.499.021.27.042.524.042.743v2.159h-1.743c-.106,0-.316.091-1.005.798-.02.02-.033.033-.038.038-.775.711-1.521,1.45-2.213,2.142-.689.689-1.426,1.434-2.142,2.214-.04.043-.134.166-.254.321-.164.212-.469.608-.531.648l.03.047v.066h0v.041h5.331c1.015,0,1.677-.122,2.482-.785.862-.709,1.667-1.526,2.446-2.317.188-.191.376-.382.565-.571l.014-.013.013-.014.251-.244c.162-.155.333-.314.509-.478.574-.532,1.167-1.083,1.657-1.681l2.157-2.157,2.015-2.015c-.003.242.019.501.038.736.013.158.025.308.029.438.133,4.223,3.062,7.857,7.121,8.838.968.234,2.093.343,3.541.343.663,0,1.334-.021,1.983-.042s1.262-.04,1.869-.04h3.754c.167,0,.337.007.508.014.174.007.348.014.521.014.366,0,.839-.029,1.25-.256.872-.48,1.603-1.297,2.309-2.087.296-.331.576-.644.865-.932.293-.292.585-.584.877-.876l.449-.449,11.37-11.37,7.261-7.261h2.905l-12.539,12.539c-.666.666-1.332,1.332-1.999,1.997-1.335,1.333-2.67,2.667-4.002,4.005-.167.167-.335.335-.504.503-.716.711-1.457,1.447-2.108,2.231l-.089.106c-.293.345-.659.775-.448,1.296.136.338.366.509.685.509,1.092,0,2.967-2.13,3.673-2.932.113-.128.195-.221.233-.259.59-.587,1.178-1.176,1.766-1.765l.882-.883,6.471-6.471c.209-.088.426-.132.646-.132.565,0,1.113.302,1.432.788.296.453.345.994.136,1.486l-.768.767c-1.271,1.27-2.543,2.54-3.812,3.813-.084.084-.214.206-.374.356-1.132,1.062-3.487,3.271-3.085,4.489.138.417.584.673,1.327.759.551.064,1.167.095,1.881.095.64,0,1.292-.024,1.924-.047.616-.023,1.253-.047,1.861-.047.25,0,.503.004.755.008.254.004.509.008.763.008.286,0,.535-.005.762-.017,1.378-.068,2.216-.745,3.249-1.693,1.181-1.084,2.331-2.244,3.442-3.365.336-.339.672-.678,1.009-1.015l1.942-1.943,1.931-1.931c.275-.103.515-.157.733-.166.115-.005.226-.012.337-.018.142-.009.284-.018.429-.021,1.142-.029,2.393-.042,3.823-.042,1.276,0,2.574.01,3.829.021,1.254.011,2.551.021,3.826.021.106,0,.316-.091,1.005-.797.02-.021.033-.034.038-.038.775-.711,1.522-1.45,2.213-2.141.689-.69,1.426-1.435,2.142-2.214ZM222.215,268.7c-.39.389-.78.778-1.168,1.169-.187.188-.445.415-.743.677-.69.607-1.549,1.361-1.992,2.058l-3.595,3.595c.209-.813.178-1.792.126-2.669l4.365-4.365,4.376-4.376c.099-.029.2-.043.3-.043h0c.338,0,.659.163.857.436.183.251.234.551.145.847l-2.086,2.086-.586.586Z"></path>
      <path fill="#fff" d="M110.203,283.911h5.644c.278,0,.565.013.869.027.309.014.627.029.941.029.473,0,.849-.034,1.184-.104,1.406-.299,2.616-1.624,3.685-2.793.284-.312.553-.605.807-.858.172-.171.344-.344.516-.516l.258-.259,3.691-3.69,6.335-6.336h5.081l-.418.418-.902.902c-.54.54-1.083,1.078-1.625,1.616-1.369,1.357-2.785,2.761-4.137,4.18-.116.123-.237.246-.361.372-.874.892-1.864,1.904-1.979,3.206-.103,1.157.453,2.316,1.416,2.954.717.474,1.598.539,2.366.539.222,0,.444-.006.662-.011.21-.006.418-.011.62-.011h10.6c.106,0,.316-.091,1.005-.797.02-.02.033-.034.038-.038.774-.711,1.521-1.449,2.213-2.142.689-.689,1.426-1.434,2.142-2.213.04-.044.134-.166.254-.321.164-.212.469-.608.531-.649l-.031-.047v-.106h-8.872c-.211,0-.439.003-.679.006-.267.003-.548.007-.838.007-1.802,0-3.767-.149-4.668-1.252-.469-.574-.603-1.376-.398-2.383.062-.301.189-.553.251-.674.009-.019.017-.034.023-.046l.811-.811.821-.821,1.424-1.424.451-.452h5.521c.106,0,.316-.09,1.005-.797.02-.02.033-.034.038-.038.774-.711,1.521-1.45,2.213-2.142.689-.689,1.426-1.434,2.142-2.214.04-.043.134-.166.254-.321.164-.212.469-.608.531-.648l-.031-.047v-.106h-5.36l.013-.013,3.211-3.211,2.141-2.14.09-.089c2.892-2.87,2.892-3.074,2.892-3.151,0-.028-.01-.054-.029-.073l-.024-.023-.047-.004h0c-.234,0-1.886,1.614-3.229,2.968l-.013.014-5.724,5.724h-20.508c-.316,0-.633-.005-.947-.01-.313-.005-.625-.011-.936-.011-1.488,0-3.202.096-4.718,1.244-2.14,1.62-4.108,3.7-6.013,5.71-.762.805-1.549,1.636-2.321,2.407l-1.073,1.073c-.705.704-1.41,1.409-2.114,2.114-.277.278-.613.579-.969.898-1.426,1.278-3.2,2.869-3.163,4.665.054,2.532,2.607,2.824,4.522,2.824.593,0,1.188-.03,1.714-.056.44-.022.855-.043,1.201-.043ZM111.685,271.555l1.326-1.326c.032-.018.079-.048.137-.085.192-.122.514-.327.818-.442.746-.283,1.617-.319,2.292-.319.282,0,.564.007.841.014.269.006.533.013.788.013h15.525l-7.874,7.874c-.607.298-1.419.437-2.552.437-.574,0-1.144-.034-1.695-.067-.471-.028-.916-.056-1.299-.056h-7.586c-.81,0-1.646,0-2.348-.564-.61-.491-.902-1.382-.966-1.995-.078-.743,1.238-2.128,2.592-3.482Z"></path>
      <path fill="#fff" d="M239.153,233.486l-.091.089c-2.891,2.87-2.891,3.074-2.891,3.151,0,.028.01.054.029.073l.023.023.047.004c.235,0,1.886-1.614,3.229-2.968l.013-.014,3.534-3.533c.125-.042.333-.143.632-.308.364-.126.777-.196,1.328-.221.072-.003.145-.004.217-.004.073,0,.146,0,.22.002.074,0,.148.002.222.002h9.523l-2.135,2.133c-3.306,3.303-11.916,11.909-15.271,15.275-.069.069-.167.163-.286.278-1.078,1.038-3.603,3.468-3.15,4.802.156.46.647.74,1.46.832.274.031.58.046.933.046.316,0,.638-.011.95-.023.304-.011.617-.022.917-.022h23.825c.106,0,.316-.09,1.005-.797.02-.021.033-.034.037-.038.775-.711,1.522-1.45,2.214-2.141.689-.689,1.425-1.435,2.141-2.214.04-.043.135-.166.254-.321.164-.212.469-.608.531-.649l-.031-.047v-.106h-24.692c-.193,0-.389.005-.586.011-.197.005-.395.011-.592.011-.219,0-.408-.007-.578-.022-.593-.052-1.125-.348-1.386-.772-.188-.304-.217-.646-.086-.988l11.143-11.143,4.105-4.105h33.837c.268,0,.556-.015.861-.031.324-.018.659-.035.99-.035.586,0,1.027.058,1.385.181.824.284,1.412,1.1,1.43,1.985,0,.057-.024.188-.046.304-.043.226-.06.332-.04.39l.014.043-.968.968-.091.091c-2.89,2.869-2.891,3.073-2.891,3.15,0,.028.01.054.029.072l.024.024.047.004c.234,0,1.885-1.614,3.229-2.967l.013-.014,1.262-1.261,1.261-1.262c.372-.372.775-.736,1.203-1.122,1.19-1.075,2.42-2.186,3.042-3.544.326-.711.297-1.454-.081-2.093-.406-.687-1.156-1.134-2.004-1.196-.088-.006-.185-.01-.295-.01-.098,0-.196.002-.294.005-.096.002-.192.005-.287.005h-45.499c-.098,0-.196-.002-.294-.003-.099-.001-.199-.003-.298-.003s-.2.001-.299.006c-2.28.107-3.987,1.901-5.493,3.484-.291.305-.564.593-.841.868-1.26,1.255-2.517,2.514-3.773,3.772l-1.889,1.891Z"></path>
      <path fill="#fff" d="M29.239,252.979c.347.075.742.11,1.241.11.291,0,.585-.011.87-.022.282-.012.548-.021.808-.021h50.308c.123,0,.248.002.373.005.127.003.255.006.382.006.144,0,.268-.004.381-.012,1.718-.125,3.081-1.588,4.284-2.88.268-.288.521-.559.768-.805.773-.771,1.545-1.543,2.316-2.315l1.151-1.153,7.627-7.627c.612.565.886,1.383.813,2.433-.005.077-.036.151-.069.23-.034.083-.069.168-.078.263l-.002.024-2.814,2.814-2.813,2.813-2.813,2.814-.091.089c-2.891,2.87-2.891,3.074-2.892,3.151,0,.028.01.054.029.072l.023.024.047.004c.235,0,1.887-1.614,3.23-2.969l.012-.013c1.181-1.181,2.362-2.361,3.544-3.541,2.333-2.33,4.745-4.739,7.112-7.115.253-.254.558-.531.881-.825,1.352-1.229,3.035-2.759,3.068-4.484.015-.814-.294-1.556-.874-2.099l.037-.037c.312-.31,1.252-1.244,1.975-2.011h4.483c.222,0,.444-.004.668-.009.223-.004.447-.009.67-.009.249,0,.465.006.662.018.723.043,1.378.412,1.709.962.261.434.289.932.079,1.405l-.94.939c-1.573,1.57-3.146,3.14-4.713,4.715-.256.257-.531.516-.821.791-1.407,1.327-3,2.832-3.123,4.785-.034.537-.022,1.087-.011,1.62.005.268.011.536.011.801v.87h-7.543c-.106,0-.316.091-1.005.797-.02.02-.033.034-.038.038-.775.712-1.522,1.45-2.214,2.142s-1.425,1.434-2.141,2.213c-.04.043-.135.166-.254.321-.164.212-.469.607-.531.648l.031.047v.026h0s0,0,0,0h0v.08h11.555c.695,0,1.257-.125,1.786-.404l-.141.275.391-.415.009-.009c.505-.319.956-.755,1.525-1.307l.192-.186c.358-.345.743-.691,1.15-1.059,1.199-1.081,2.439-2.199,3.209-3.462.303-.498.316-.909.332-1.43v-.026c.025-.783.023-1.566.017-2.297l6.096-6.096,6.108-6.109c.344-.134.777-.196,1.361-.196.352,0,.705.022,1.047.044.299.019.582.037.829.037.741,0,1.674.285,2.023.831.178.278.188.598.029.951l-30.268,30.369-.582.583c-.38.381-.76.762-1.139,1.143-.247.248-.509.5-.764.744-.691.662-1.407,1.346-1.963,2.108-.983,1.345.25,3.524,1.039,4.489.984,1.203,2.427,2.017,3.959,2.235.48.068.993.135,1.503.135.749,0,1.303-.146,1.693-.447.944-.729,1.798-1.617,2.624-2.476.301-.313.612-.637.922-.947l17.525-17.525,10.869-10.869,5.435-5.435.09-.09c2.891-2.87,2.892-3.074,2.892-3.15,0-.028-.01-.054-.029-.073l-.023-.023-.047-.005c-.234,0-1.885,1.614-3.229,2.967l-.014.014-30.416,30.416-1.258,1.258h-.32c-1.526,0-2.896-.06-4.195-.801-.112-.064-.227-.136-.356-.223l16.065-16.065,19.857-19.857c.032-.018.077-.047.133-.083.191-.122.512-.326.817-.442.718-.272,1.488-.295,2.153-.295.118,0,.236,0,.354.002.119,0,.237.001.355.001h59.146c.727,0,1.483-.025,2.215-.05.745-.025,1.515-.051,2.269-.051.839,0,1.563.033,2.213.102.536.056,1.003.333,1.251.74.196.323.229.697.095,1.055l-1.308,1.307c-.533.533-1.111,1.08-1.67,1.608-1.436,1.357-2.92,2.76-4.038,4.283-.519.707-.689,1.598-.434,2.271.141.371.479.849,1.291,1.023.121.026.247.039.374.039,1.418,0,2.848-1.608,3.892-2.782.264-.296.491-.552.688-.748.846-.843,1.69-1.688,2.534-2.532l1.275-1.277,1.638-1.638,1.628-1.628c.399-.177.818-.299,1.243-.365.206-.032.414-.048.616-.048,1.11,0,2.18.49,3.178,1.457.354.343.744.691,1.158,1.06,1.219,1.089,2.601,2.323,3.276,3.671.378.756.516,1.635.386,2.474-.066.432-.204.865-.409,1.288l-3.767,3.767-1.865,1.865h-22.31c-.106,0-.316.09-1.005.797-.02.02-.033.034-.038.038-.775.711-1.522,1.45-2.213,2.141s-1.426,1.435-2.142,2.214c-.04.043-.134.166-.254.321-.164.212-.469.607-.531.648l.031.047v.106h22.522l.017.017.046.004c.022,0,.047-.006.077-.021h.223c.22,0,.479.021.753.043.309.024.629.05.935.05.328,0,.59-.03.799-.093h12.582c.106,0,.316-.091,1.005-.797.02-.02.033-.034.038-.038.775-.711,1.522-1.45,2.214-2.141.689-.69,1.426-1.435,2.142-2.214.04-.043.134-.166.254-.321.164-.212.469-.608.531-.649l-.031-.047v-.106h-12.152l6.865-6.865,5.149-5.149,2.574-2.575.091-.09c2.891-2.87,2.892-3.074,2.892-3.15,0-.028-.01-.054-.029-.073l-.023-.023-.046-.005c-.235,0-1.886,1.614-3.23,2.968l-.013.013-14.949,14.949h-.426c-.021,0-.039.006-.053.012-.079-.007-.151-.012-.212-.012h-1.361l2.736-2.737,1.904-1.904,1.904-1.904c.35-.349.716-.702,1.07-1.042,1.125-1.082,2.289-2.201,3.184-3.48,2.455-3.506-1.034-6.645-3.582-8.937-.229-.206-.451-.406-.661-.599-.921-.847-1.91-1.277-2.938-1.277-2.547,0-4.96,2.592-6.899,4.675-.428.459-.831.892-1.212,1.273l-4.876,4.876c-.209.088-.426.132-.646.132-.565,0-1.113-.302-1.432-.789-.296-.452-.345-.993-.135-1.486l1.351-1.352,1.363-1.362.579-.579c.801-.798,1.628-1.624,2.422-2.456.115-.121.248-.25.389-.387.678-.657,1.521-1.475,1.469-2.412-.044-.795-.628-1.354-1.526-1.458-.707-.082-1.497-.122-2.414-.122-.822,0-1.661.031-2.473.062-.791.029-1.608.06-2.389.06h-53.193c-.739,0-1.516-.029-2.267-.056-.774-.029-1.575-.059-2.361-.059-1.085,0-1.965.056-2.771.176-2.271.339-4.021,2.21-5.566,3.862-.36.386-.701.75-1.045,1.094l-1.655,1.655-1.655,1.655-12.082,12.082c-2.427,2.427-4.855,4.854-7.283,7.281-4.871,4.869-9.742,9.738-14.609,14.611l-.276.275-.138.138-.033.033c-1.365-1.093-2.221-2.77-2.298-4.507l7.271-7.294,14.615-14.664c1.088-1.091,2.175-2.182,3.263-3.272,2.172-2.178,4.344-4.354,6.512-6.536.16-.161.396-.368.67-.608,1.345-1.179,3.597-3.153,2.529-4.658-.368-.519-1.194-.771-2.526-.771-.616,0-1.212.052-1.692.094-.134.012-.256.022-.363.031-1.525.115-2.768,1.495-3.865,2.711-.29.322-.563.625-.827.888-.461.459-.92.919-1.38,1.379l-.701.702-4.125,4.125-8.116,8.115c-.004-.464-.009-.928-.009-1.391,0-.368-.008-.745-.015-1.109-.015-.732-.031-1.489.015-2.222.022-.361.091-.675.141-.904.04-.184.063-.293.055-.365l5.504-5.504.175-.175.35-.35c.252-.253.548-.521.861-.806.997-.904,2.126-1.93,2.536-3.061.214-.592.163-1.157-.148-1.633-.359-.551-1.026-.911-1.786-.962-1.49-.102-3.132-.151-5.02-.151-1.686,0-3.403.039-5.063.076-1.646.037-3.348.075-5.004.075h-15.882c-.106,0-.316.091-1.005.798l-.038.038c-.775.712-1.522,1.45-2.213,2.142-.689.689-1.426,1.434-2.142,2.214-.04.043-.135.166-.254.321-.164.212-.469.608-.531.648l.031.047v.026h0s0,0,0,0h0v.081h23.79c-.704.673-1.448,1.419-1.75,1.723l-.008.008c-.477-.312-1.042-.494-1.638-.527-.314-.017-.66-.026-1.057-.026-.353,0-.707.006-1.06.013-.351.006-.701.013-1.049.013h-49.656c-.106,0-.316.091-1.005.797-.02.021-.033.034-.038.038-.775.711-1.522,1.45-2.213,2.141s-1.425,1.434-2.142,2.214c-.04.043-.134.166-.254.32-.164.213-.469.608-.532.649l.031.047v.106h52.057c.892,0,1.662.185,2.235.535l-4.217,4.217-4.278,4.278c-.541.264-1.102.286-1.63.286-.104,0-.208,0-.314-.002-.11,0-.221-.002-.334-.002h-47.824c-.37,0-.827.028-1.311.057-.585.036-1.249.076-1.901.076-1.736,0-2.825-.293-3.428-.922-.487-.508-.76-1.235-.729-1.944.014-.328.117-.605.173-.755.033-.088.049-.132.039-.168l1.639-1.638,1.499-1.5,4.631-4.631,4.625-4.625.042-.027c.183-.116.523-.333.871-.459.487-.178,1.009-.268,1.693-.293.314-.011.658-.017,1.052-.017.352,0,.705.004,1.057.008s.704.009,1.055.009h27.312s.698,0,.698,0c.106,0,.316-.09,1.005-.797.02-.021.033-.034.038-.038.775-.712,1.522-1.45,2.213-2.142.689-.689,1.426-1.434,2.142-2.213.04-.044.134-.166.254-.321.164-.212.469-.608.532-.649l-.031-.047v-.066h0v-.041h-30.604s-.252-.001-.252-.001c-.408,0-.882.008-1.353.1-2.007.393-3.614,2.074-5.032,3.557-.285.297-.553.579-.82.844-.939.937-1.877,1.875-2.814,2.813l-1.421,1.422-4.146,4.145c-2.758,2.757-5.516,5.514-8.271,8.273-.292.293-.601.589-.898.875-.927.891-1.885,1.812-2.62,2.863-.595.851-.739,1.955-.375,2.88.332.846,1.019,1.421,1.934,1.619Z"></path>
      <path fill="#fff" d="M168.353,253.167c3.303.031,6.717.063,10.075.063,3.765,0,7.055-.041,10.06-.126.847-.024,1.512-.266,2.153-.784.187-.013.593-.373,1.393-1.233.856-.801,1.692-1.657,2.501-2.484.156-.16.31-.312.464-.465.299-.297.609-.604.895-.922l1.996-2.039,1.957-1.999c.133-.136.271-.275.412-.417,2.452-2.48,5.811-5.876,2.532-9.151-1.32-1.32-2.978-1.32-4.439-1.32h-.332s-5.868,0-5.868,0h-36.226c-.489,0-.978-.002-1.467-.004-.489-.001-.978-.003-1.467-.003s-.979.002-1.468.007c-2.869.031-4.779,1.986-6.626,3.876-.246.251-.492.503-.74.751-1.336,1.332-2.669,2.667-4.003,4.002l-2,2.001-.714.714c-.483.483-.966.965-1.448,1.449-.242.243-.536.51-.848.793-1.36,1.236-3.053,2.774-3.017,4.503.055,2.565,2.883,2.862,5.006,2.862.76,0,1.512-.043,2.174-.08.531-.03.989-.057,1.361-.057h17.631c3.348,0,6.757.032,10.055.063ZM141.471,246.791h-.085c-.419-.006-.814-.011-1.229-.157-.727-.257-1.313-.858-1.568-1.607-.13-.383-.176-.765-.137-1.133.003-.024.03-.114.055-.195.076-.249.125-.418.109-.503l-.005-.028c.385-.383.768-.764,1.147-1.14.579-.574,1.157-1.148,1.733-1.724l.993-.994c.068-.035.154-.082.259-.143.166-.05.325-.124.479-.194.18-.083.366-.167.56-.216.352-.088.713-.134,1.208-.154.26-.01.545-.015.873-.015.292,0,.585.003.877.007.292.004.585.007.876.007h33.79c1.287,0,2.575-.003,3.862-.008,1.288-.003,2.575-.008,3.863-.008,1.443,0,2.705.005,3.859.016,1.502.014,2.878.589,3.774,1.58.773.853,1.125,1.944,1.016,3.155-.035.391-.158.721-.288,1.072-.055.147-.111.299-.162.458-.022.07-.039.131-.049.186l-1.108,1.131-.356.364c-.528.226-1.09.257-1.62.257-.167,0-.334-.004-.503-.007-.171-.003-.344-.007-.517-.007h-22.624c-3.23,0-6.516.015-9.693.028-3.178.014-6.465.029-9.697.029-3.624,0-6.794-.019-9.692-.057Z"></path>
      <path fill="#fff" d="M553.794,234.118h-.498c-7.973-14.201-20.679-20.679-39.365-20.679-31.89,0-56.306,25.413-56.306,65.275,0,39.613,25.661,64.029,58.05,64.029,17.689,0,29.399-7.226,37.621-20.43h.747c-.249,4.485-.498,11.211-.498,18.437v3.239c0,19.184-10.962,29.149-32.139,29.149-17.44,0-27.655-5.481-29.897-16.443h-30.395c3.239,25.164,25.163,39.614,60.791,39.614,18.686,0,34.879-4.236,45.842-13.454,10.464-9.218,16.692-22.921,16.692-41.606v-124.321h-30.644v17.19ZM521.406,318.327c-20.679,0-32.388-15.695-32.388-40.112s11.46-40.112,32.139-40.112c22.672,0,33.634,15.945,33.634,39.614,0,23.17-9.218,40.61-33.385,40.61Z"></path>
      <path fill="#fff" d="M664.215,213.439c-18.686,0-32.139,8.471-41.108,22.672h-.747c.249-7.723.498-17.938.498-21.675v-49.828h-31.641v185.361h31.641v-77.981c0-18.935,12.457-32.389,30.146-32.389,16.194,0,25.412,9.717,25.412,25.413v84.957h31.64v-90.189c0-28.651-17.19-46.34-45.842-46.34Z"></path>
      <polygon fill="#fff" points="766.589 250.81 782.035 239.848 763.35 213.937 792.001 204.47 785.523 187.279 757.869 196.498 757.869 164.607 737.937 164.607 737.937 196.498 710.034 187.279 703.058 204.47 732.207 213.937 713.771 239.848 729.218 250.81 748.152 223.405 766.589 250.81"></polygon>
      <rect fill="#fff" height="6.158" width="3.357" y="343.733" x="800.966"></rect>
      <rect fill="#fff" height="6.158" width="3.357" y="343.733" x="400.483"></rect>
      <rect fill="#fff" height="6.158" width="3.357" y="343.733"></rect>
      <rect fill="#fff" height="6.158" width="3.357" y="332.612"></rect>
      <rect fill="#fff" height="6.158" width="3.357" y="321.491"></rect>
      <rect fill="#fff" height="6.159" width="3.357" y="310.369"></rect>
      <path fill="#fff" d="M336.915,287.7h-75.093l-6.839,21.886h-33.305l6.839-21.886h-19.591l-6.858,21.886h-12.296c-7.842,0-14.772,5.1-17.105,12.586l-3.299,10.587h-33.606c-1.789,0-3.065-1.735-2.532-3.443l4.841-15.491c1.577-5.048,6.251-8.484,11.54-8.484h48.319l5.52-17.641h-58.588c-10.839,0-20.419,7.043-23.652,17.389l-6.112,19.56c-3.99,12.769,5.549,25.743,18.926,25.743h49.426l6.643-21.288c.35-1.122,1.388-1.886,2.563-1.886h3.902l-7.223,23.174h19.591l7.242-23.174h33.305l-7.242,23.174h19.591l14.081-45.06h5.877l-14.081,45.06h59.157c10.261,0,19.332-6.669,22.393-16.463l6.459-20.668c3.962-12.678-5.51-25.561-18.792-25.561ZM336.93,310.658l-5.894,18.86c-.603,1.928-2.389,3.242-4.411,3.242h-33.826l8.571-27.427h31.644c2.767,0,4.741,2.684,3.915,5.326Z"></path>
      <polygon fill="#fff" points="381.14 286.832 377.125 269.589 373.11 286.832 355.47 285.322 370.628 294.468 363.741 310.778 377.125 299.188 390.508 310.778 383.621 294.468 398.78 285.322 381.14 286.832"></polygon>
      <path fill="#fff" d="M593.891,357.008c.471-.175.786-.626.786-1.137,0-.716-.613-1.329-1.443-1.329-.474,0-.932.202-1.261.562l.327.363c.245-.262.581-.402.905-.402.539,0,.912.374.912.817,0,.319-.196.666-.56.826-.092.04-.331.132-.829.133v.473c.088-.013.178-.019.267-.019.71,0,1.233.371,1.233.996,0,.577-.442,1.07-1.057,1.07-.489,0-.784-.313-.821-.355-.072-.08-.034-.162-.109-.238l-.443.53c.352.392.854.598,1.379.598,1.005,0,1.616-.717,1.616-1.532,0-.625-.357-1.156-.902-1.355Z"></path>
      <path fill="#fff" d="M598.14,354.551h-.494l-2.231,3.366v.436h2.115v1.454h.61v-1.446h.676v-.523h-.676v-3.286ZM597.537,357.837h-1.541l1.541-2.348v2.348Z"></path>
      <path fill="#fff" d="M600.808,358.935c-.276,0-.498.218-.498.483s.221.483.498.483.498-.219.498-.483-.221-.483-.498-.483Z"></path>
      <path fill="#fff" d="M604.708,354.522c-.833,0-1.695,1.022-1.695,2.702,0,1.697.875,2.677,1.704,2.677.762,0,1.661-.827,1.661-2.63,0-1.791-.862-2.749-1.67-2.749ZM603.68,358.114c-.074-.288-.117-.621-.117-.992,0-1.343.616-2.084,1.137-2.084.287,0,.603.221.828.684l-1.848,2.393ZM605.833,357.34c0,1.467-.633,2.024-1.096,2.024-.312,0-.635-.256-.862-.717l1.848-2.362c.07.296.11.646.11,1.055Z"></path>
      <path fill="#fff" d="M609.514,354.551h-.494l-2.231,3.366v.436h2.115v1.454h.61v-1.446h.676v-.523h-.676v-3.286ZM608.911,357.837h-1.541l1.541-2.348v2.348Z"></path>
      <path fill="#fff" d="M612.877,357.001c.509-.268.837-.76.837-1.266,0-.691-.596-1.243-1.366-1.243-.803,0-1.419.587-1.419,1.294,0,.517.326.987.8,1.229-.623.293-1.048.865-1.048,1.472,0,.781.69,1.407,1.594,1.407.922,0,1.615-.644,1.615-1.442,0-.618-.421-1.179-1.013-1.451ZM611.495,355.736c0-.414.35-.749.808-.749.469,0,.836.349.836.787,0,.404-.311.796-.72,1.016,0,0-.924-.36-.924-1.054ZM612.302,359.363c-.571,0-1.017-.427-1.017-.954,0-.496.387-.946.887-1.154.675.214,1.121.678,1.121,1.19,0,.507-.431.918-.991.918Z"></path>
      <path fill="#fff" d="M616.668,357.001c.509-.268.837-.76.837-1.266,0-.691-.596-1.243-1.366-1.243-.803,0-1.419.587-1.419,1.294,0,.517.326.987.8,1.229-.623.293-1.048.865-1.048,1.472,0,.781.69,1.407,1.594,1.407.922,0,1.615-.644,1.615-1.442,0-.618-.421-1.179-1.013-1.451ZM615.286,355.736c0-.414.35-.749.808-.749.469,0,.836.349.836.787,0,.404-.311.796-.72,1.016,0,0-.924-.36-.924-1.054ZM616.093,359.363c-.571,0-1.017-.427-1.017-.954,0-.496.387-.946.887-1.154.675.214,1.121.678,1.121,1.19,0,.507-.431.918-.991.918Z"></path>
      <path fill="#fff" d="M619.909,354.428c-.628,0-1.138.508-1.138,1.131s.51,1.131,1.139,1.131,1.138-.508,1.138-1.131-.51-1.131-1.139-1.131ZM619.918,356.224c-.343,0-.63-.296-.63-.675,0-.382.288-.678.63-.678s.629.296.629.675c0,.383-.287.678-.629.678Z"></path>
      <path fill="#fff" d="M628.536,358.447l-2.202-3.889h-.574v5.248h.566v-4.129l2.312,4.136h.466v-5.037c0-.059.013-.079.033-.118.01-.018.031-.058.024-.107h-.625v3.896Z"></path>
      <polygon fill="#fff" points="615.606 364.668 617.474 364.668 617.474 364.166 615.068 364.166 615.068 370.556 617.482 370.556 617.482 370.075 615.606 370.075 615.606 364.668"></polygon>
      <polygon fill="#fff" points="618.46 364.668 620.328 364.668 620.328 370.075 618.453 370.075 618.453 370.556 620.866 370.556 620.866 364.166 618.46 364.166 618.46 364.668"></polygon>
      <rect fill="#fff" height=".56" width="3.031" y="366.877" x="679.01"></rect>
      <ellipse fill="#fff" ry=".483" rx=".498" cy="369.418" cx="695.589"></ellipse>
      <ellipse fill="#fff" ry=".483" rx=".498" cy="369.418" cx="699.38"></ellipse>
      <polygon fill="#fff" points="750.985 369.916 751.479 370.163 754.125 364.464 753.624 364.21 750.985 369.916"></polygon>
      <polygon fill="#fff" points="762.561 365.271 762.7 365.598 763.754 365.285 763.754 369.813 764.343 369.813 764.343 364.551 763.935 364.551 762.561 365.271"></polygon>
      <polygon fill="#fff" points="766.352 365.271 766.491 365.598 767.545 365.285 767.545 369.813 768.134 369.813 768.134 364.551 767.726 364.551 766.352 365.271"></polygon>
      <path fill="#fff" d="M772.106,367.001c.509-.268.837-.76.837-1.266,0-.691-.596-1.243-1.366-1.243-.803,0-1.419.587-1.419,1.294,0,.517.326.987.8,1.229-.623.293-1.048.865-1.048,1.472,0,.781.689,1.407,1.594,1.407.922,0,1.615-.644,1.615-1.442,0-.618-.421-1.179-1.013-1.451ZM770.724,365.736c0-.414.35-.749.808-.749.469,0,.836.349.836.787,0,.404-.311.796-.72,1.016,0,0-.924-.36-.924-1.054ZM771.531,369.363c-.571,0-1.017-.427-1.017-.954,0-.496.387-.946.887-1.154.675.214,1.121.678,1.121,1.19,0,.507-.431.918-.991.918Z"></path>
      <ellipse fill="#fff" ry=".483" rx=".498" cy="369.418" cx="775.204"></ellipse>
      <path fill="#fff" d="M780.481,369.291h-2.202c.438-.764,1.05-1.285,1.428-1.64.385-.36.923-.9.923-1.655,0-.817-.665-1.474-1.522-1.474-.596,0-1.159.321-1.469.851l.429.341c.05-.071.028-.124.073-.193.124-.192.439-.479.897-.479.559,0,1.007.434,1.007.998,0,.639-.538,1.1-.918,1.442-.6.54-1.083,1.082-1.524,1.953v.371h3.082v-.589c-.055-.018-.097.022-.113.038-.034.029-.052.035-.091.035Z"></path>
      <path fill="#fff" d="M782.939,366.397c-.29,0-.583.068-.854.203l.08-1.512h2.166v-.53h-2.66l-.183,2.668.379.152c.253-.319.624-.495.982-.495.553,0,1.074.416,1.074,1.252,0,.808-.498,1.249-1.062,1.249-.566,0-.933-.43-.962-.484-.034-.064.01-.147-.062-.198l-.523.393c.348.514.932.807,1.556.807.907,0,1.657-.616,1.657-1.754,0-1.124-.709-1.75-1.588-1.75Z"></path>
      <polygon fill="#fff" points="785.308 365.271 785.447 365.598 786.5 365.285 786.5 369.813 787.089 369.813 787.089 364.551 786.682 364.551 785.308 365.271"></polygon>
      <path fill="#fff" d="M791.062,367.001c.509-.268.837-.76.837-1.266,0-.691-.596-1.243-1.366-1.243-.803,0-1.419.587-1.419,1.294,0,.517.326.987.8,1.229-.623.293-1.048.865-1.048,1.472,0,.781.69,1.407,1.594,1.407.922,0,1.615-.644,1.615-1.442,0-.618-.421-1.179-1.013-1.451ZM789.68,365.736c0-.414.35-.749.808-.749.469,0,.836.349.836.787,0,.404-.311.796-.72,1.016,0,0-.924-.36-.924-1.054ZM790.487,369.363c-.571,0-1.017-.427-1.017-.954,0-.496.387-.946.887-1.154.675.214,1.121.678,1.121,1.19,0,.507-.431.918-.991.918Z"></path>
      <path fill="#fff" d="M794.303,364.428c-.628,0-1.138.508-1.138,1.131s.51,1.131,1.139,1.131,1.138-.508,1.138-1.131-.51-1.131-1.139-1.131ZM794.312,366.224c-.343,0-.63-.296-.63-.675,0-.382.288-.678.63-.678s.629.296.629.675c0,.383-.287.678-.629.678Z"></path>
      <polygon fill="#fff" points="802.865 368.12 802.014 364.943 801.832 364.943 800.99 368.105 800.422 364.559 799.877 364.559 800.72 369.843 800.96 369.843 801.876 366.376 802.778 369.843 803.01 369.843 803.839 364.559 803.344 364.559 802.865 368.12"></polygon>
      <polygon fill="#fff" points="319.06 359.916 319.554 360.163 322.2 354.464 321.698 354.21 319.06 359.916"></polygon>
      <polygon fill="#fff" points="322.851 359.916 323.345 360.163 325.991 354.464 325.489 354.21 322.851 359.916"></polygon>
      <polygon fill="#fff" points="368.344 359.916 368.839 360.163 371.484 354.464 370.983 354.21 368.344 359.916"></polygon>
      <polygon fill="#fff" points="422.526 354.668 424.394 354.668 424.394 354.166 421.988 354.166 421.988 360.556 424.402 360.556 424.402 360.075 422.526 360.075 422.526 354.668"></polygon>
      <polygon fill="#fff" points="425.38 354.668 427.248 354.668 427.248 360.075 425.373 360.075 425.373 360.556 427.786 360.556 427.786 354.166 425.38 354.166 425.38 354.668"></polygon>
      <polygon fill="#fff" points="440.378 359.916 440.872 360.163 443.517 354.464 443.016 354.21 440.378 359.916"></polygon>
      <path fill="#fff" d="M3.433,357.602c0-1.203.583-2.276,1.567-2.856.022-.014.042-.026.076-.026.03,0,.056.01.09.01.012,0,.039,0,.068-.018l-.254-.516c-1.304.573-2.132,1.893-2.132,3.435,0,1.53.805,2.931,2.139,3.631l.276-.443c-1.151-.669-1.83-1.907-1.83-3.216Z"></path>
      <path fill="#fff" d="M9.104,356.317l-1.337.61.131-1.265c.011-.104.037-.125.051-.225h-.683l.131,1.489-1.359-.64-.218.546,1.454.443-1.098,1.265.458.37.945-1.402.909,1.396.458-.363-1.062-1.272,1.447-.436-.226-.517Z"></path>
      <path fill="#fff" d="M16.549,359.291h-2.202c.438-.764,1.05-1.285,1.429-1.64.385-.36.923-.9.923-1.655,0-.817-.665-1.474-1.522-1.474-.596,0-1.159.321-1.469.851l.429.341c.05-.071.028-.124.073-.193.124-.192.439-.479.897-.479.56,0,1.008.434,1.008.998,0,.639-.538,1.1-.919,1.442-.6.54-1.083,1.082-1.524,1.953v.371h3.082v-.589c-.055-.018-.097.022-.113.038-.034.029-.052.035-.091.035Z"></path>
      <path fill="#fff" d="M18.961,354.522c-.833,0-1.695,1.022-1.695,2.702,0,1.697.875,2.677,1.704,2.677.762,0,1.661-.827,1.661-2.63,0-1.791-.862-2.749-1.67-2.749ZM17.934,358.114c-.074-.288-.117-.621-.117-.992,0-1.343.616-2.084,1.137-2.084.287,0,.603.221.828.684l-1.848,2.393ZM20.086,357.34c0,1.467-.633,2.024-1.096,2.024-.312,0-.635-.256-.862-.717l1.848-2.362c.07.296.11.646.11,1.055Z"></path>
      <path fill="#fff" d="M24.131,359.291h-2.202c.438-.764,1.05-1.285,1.429-1.64.385-.36.923-.9.923-1.655,0-.817-.665-1.474-1.522-1.474-.596,0-1.159.321-1.469.851l.429.341c.05-.071.028-.124.073-.193.124-.192.439-.479.897-.479.56,0,1.008.434,1.008.998,0,.639-.538,1.1-.919,1.442-.6.54-1.083,1.082-1.524,1.953v.371h3.082v-.589c-.055-.018-.097.022-.113.038-.034.029-.052.035-.091.035Z"></path>
      <path fill="#fff" d="M26.687,356.418c-.458,0-.881.241-1.112.634.032-1.795.896-2.03,1.273-2.03.349,0,.581.186.613.22.051.054.05.133.127.189l.407-.45c-.309-.305-.725-.481-1.151-.481-.626,0-1.305.386-1.628,1.304-.176.5-.225,1.11-.225,1.614,0,.614.06,1.271.397,1.78.306.461.772.696,1.239.696.798,0,1.498-.675,1.498-1.756,0-1.092-.697-1.72-1.439-1.72ZM26.653,359.371c-.641,0-1.119-.75-1.05-1.73.236-.431.639-.706,1.028-.706.422,0,.921.329.921,1.233,0,.821-.454,1.203-.899,1.203Z"></path>
      <polygon fill="#fff" points="32.364 355.627 35.286 357.117 32.342 358.774 32.342 359.407 35.933 357.313 35.933 356.906 32.364 355.031 32.364 355.627"></polygon>
      <path fill="#fff" d="M40.405,354.202l-.16.523c1.113.592,1.817,1.745,1.817,2.995,0,1.268-.723,2.443-1.861,3.046l.16.509c1.396-.666,2.297-2.065,2.297-3.579,0-1.5-.885-2.864-2.253-3.494Z"></path>
      <path fill="#fff" d="M84.483,356.317l-1.337.61.131-1.265c.011-.104.037-.125.051-.225h-.683l.131,1.489-1.359-.64-.218.546,1.454.443-1.098,1.265.458.37.945-1.402.909,1.396.458-.363-1.062-1.272,1.447-.436-.226-.517Z"></path>
      <path fill="#fff" d="M91.63,358.447l-2.203-3.889h-.574v5.248h.567v-4.129l2.312,4.136h.465v-5.037c0-.059.014-.079.034-.118.009-.018.031-.058.024-.107h-.625v3.896Z"></path>
      <path fill="#fff" d="M94.359,354.5c-.783,0-1.889.611-1.889,2.675s1.09,2.712,1.894,2.712c.566,0,1.171-.316,1.517-1.016.278-.563.312-1.217.312-1.678,0-.491-.035-1.143-.321-1.704-.344-.674-.94-.989-1.512-.989ZM95.369,358.602c-.242.512-.649.711-1.002.711-.591,0-1.315-.546-1.315-2.215,0-1.564.731-2.045,1.282-2.045.373,0,.821.222,1.066.83.177.44.204.943.204,1.388,0,.344-.021.879-.235,1.331Z"></path>
      <path fill="#fff" d="M99.212,358.447l-2.202-3.889h-.574v5.248h.566v-4.129l2.312,4.136h.466v-5.037c0-.059.013-.079.033-.118.01-.018.031-.058.024-.107h-.625v3.896Z"></path>
      <polygon fill="#fff" points="100.299 359.807 103.498 359.807 103.498 359.283 100.859 359.283 100.859 357.335 103.054 357.335 103.054 356.797 100.859 356.797 100.859 355.074 103.52 355.074 103.52 354.551 100.299 354.551 100.299 359.807"></polygon>
      <path fill="#fff" d="M109.523,354.5c-.783,0-1.889.611-1.889,2.675s1.09,2.712,1.894,2.712c.566,0,1.171-.316,1.517-1.016.278-.563.312-1.217.312-1.678,0-.491-.035-1.143-.321-1.704-.344-.674-.94-.989-1.512-.989ZM110.533,358.602c-.242.512-.649.711-1.002.711-.591,0-1.315-.546-1.315-2.215,0-1.564.731-2.045,1.282-2.045.373,0,.821.222,1.066.83.177.44.204.943.204,1.388,0,.344-.021.879-.235,1.331Z"></path>
      <polygon fill="#fff" points="111.833 359.807 112.428 359.807 112.428 357.227 114.391 357.227 114.391 356.718 112.428 356.718 112.428 355.067 114.856 355.067 114.856 354.551 111.833 354.551 111.833 359.807"></polygon>
      <polygon fill="#fff" points="119.023 355.082 120.513 355.082 120.513 359.813 121.109 359.813 121.109 355.082 122.658 355.082 122.658 354.551 119.023 354.551 119.023 355.082"></polygon>
      <path fill="#fff" d="M125.678,354.559v2.246h-2.058v-2.043c0-.09.053-.099.053-.164,0-.014-.003-.027-.009-.039h-.654v5.248h.61v-2.501h2.05v2.508h.597v-5.066c0-.087.061-.09.061-.153,0-.013-.004-.024-.01-.035h-.64Z"></path>
      <polygon fill="#fff" points="128.648 355.053 129.687 355.053 129.687 354.559 127.084 354.559 127.084 355.053 128.059 355.053 128.059 359.319 127.027 359.319 127.027 359.813 129.738 359.813 129.738 359.327 128.648 359.327 128.648 355.053"></polygon>
      <path fill="#fff" d="M131.884,356.567c-.439-.257-.537-.568-.537-.782,0-.402.348-.77.948-.77.489,0,.865.224,1.068.52.022.032.018.05.019.081.002.047.026.063.045.069l.37-.502c-.354-.422-.883-.654-1.455-.654-.948,0-1.599.627-1.599,1.345,0,.306.12.7.558,1.023.486.359,1.243.541,1.641.789.344.216.439.49.439.725,0,.457-.384.952-1.146.952-.576,0-1.02-.281-1.255-.579-.026-.033-.023-.054-.023-.089,0-.014.002-.061-.038-.081l-.349.604c.412.449,1,.677,1.647.677,1.277,0,1.75-.856,1.75-1.517,0-.274-.08-.642-.408-.95-.456-.431-1.196-.579-1.676-.86Z"></path>
      <polygon fill="#fff" points="140.022 355.053 141.061 355.053 141.061 354.559 138.458 354.559 138.458 355.053 139.433 355.053 139.433 359.319 138.401 359.319 138.401 359.813 141.112 359.813 141.112 359.327 140.022 359.327 140.022 355.053"></polygon>
      <path fill="#fff" d="M143.258,356.567c-.439-.257-.536-.568-.536-.782,0-.402.347-.77.947-.77.489,0,.865.224,1.068.52.022.032.018.05.019.081.002.047.026.063.045.069l.37-.502c-.355-.422-.883-.654-1.455-.654-.948,0-1.599.627-1.599,1.345,0,.306.12.7.558,1.023.486.359,1.243.541,1.641.789.344.216.439.49.439.725,0,.457-.384.952-1.146.952-.576,0-1.02-.281-1.255-.579-.026-.033-.023-.054-.023-.089,0-.014.002-.061-.038-.081l-.349.604c.412.449,1,.677,1.647.677,1.277,0,1.75-.856,1.75-1.517,0-.274-.08-.642-.408-.95-.456-.431-1.196-.579-1.676-.86Z"></path>
      <path fill="#fff" d="M152.857,355.998c0-.527-.26-1.018-.743-1.263-.332-.169-.663-.177-1.003-.177h-1.548v5.248h.596v-2.318h1.018l1.163,2.318h.662l-1.215-2.341c.637-.174,1.07-.773,1.07-1.468ZM151.176,356.972h-1.018v-1.86h.952c.22,0,.431.005.645.112.327.164.497.498.497.84,0,.334-.162.647-.467.801-.202.103-.402.107-.609.107Z"></path>
      <polygon fill="#fff" points="153.375 359.807 156.574 359.807 156.574 359.283 153.935 359.283 153.935 357.335 156.13 357.335 156.13 356.797 153.935 356.797 153.935 355.074 156.596 355.074 156.596 354.551 153.375 354.551 153.375 359.807"></polygon>
      <path fill="#fff" d="M158.651,354.464l-1.854,5.35h.581l.509-1.541h1.665l.581,1.534h.61l-2.027-5.343h-.065ZM158.003,357.815l.676-1.999.742,1.999h-1.418Z"></path>
      <path fill="#fff" d="M161.634,354.842c0-.076.019-.104.044-.15.012-.024.038-.073.029-.133h-.684v5.255h3.141v-.509h-2.53v-4.463Z"></path>
      <path fill="#fff" d="M169.8,357.602c0-1.203.583-2.276,1.566-2.856.022-.014.043-.026.076-.026.03,0,.057.01.09.01.013,0,.04,0,.068-.018l-.255-.516c-1.303.573-2.132,1.893-2.132,3.435,0,1.53.806,2.931,2.14,3.631l.276-.443c-1.151-.669-1.83-1.907-1.83-3.216Z"></path>
      <ellipse fill="#fff" ry=".483" rx=".498" cy="359.433" cx="181.619"></ellipse>
      <path fill="#fff" d="M181.583,354.202c-.631,0-1.258.315-1.624.88l.429.399c.266-.444.713-.728,1.139-.728.504,0,.887.392.887.89,0,.552-.438.896-.692,1.176-.372.408-.396.705-.396,1.083v.349h.553v-.349c0-.297.02-.547.366-.855.278-.247.835-.567.835-1.359,0-.785-.542-1.485-1.496-1.485Z"></path>
      <path fill="#fff" d="M191.608,354.202l-.16.523c1.113.592,1.817,1.745,1.817,2.995,0,1.268-.723,2.443-1.861,3.046l.16.509c1.396-.666,2.297-2.065,2.297-3.579,0-1.5-.885-2.864-2.253-3.494Z"></path>
      <path fill="#fff" d="M790.108,348.386v-31.773c0-1.106-.9-2.007-2.007-2.007h-39.065c-1.106,0-2.006.9-2.006,2.007v31.773c0,1.106.9,2.006,2.006,2.006h39.065c1.106,0,2.007-.899,2.007-2.006ZM789.108,348.386c0,.555-.452,1.006-1.007,1.006h-39.065c-.555,0-1.006-.451-1.006-1.006v-31.773c0-.555.452-1.007,1.006-1.007h39.065c.555,0,1.007.452,1.007,1.007v31.773Z"></path>
      <path fill="#fff" d="M787.149,317.859l-18.58,14.251-18.581-14.251c-.219-.17-.533-.126-.701.092-.168.22-.126.533.093.701l18.368,14.088-17.737,13.604c-.219.168-.261.481-.093.701.099.128.247.195.397.195.106,0,.213-.033.304-.104l17.95-13.767,17.949,13.767c.091.07.198.104.305.104.149,0,.298-.067.396-.195.168-.22.127-.533-.092-.701l-17.737-13.604,18.368-14.088c.219-.168.26-.481.092-.701-.17-.22-.483-.263-.701-.092Z"></path>
      <path fill="#fff" d="M102.634,288.741c-5.727,3.505-11.249,7.329-17.026,10.761-5.458,3.242-10.724,6.809-16.114,10.171-.849.529-1.363,1.159-.871,1.971.537.887,1.426.518,2.19.069,5.322-3.125,10.287-6.811,15.618-9.927,3.176-1.856,6.274-3.854,9.337-5.893,2.383-1.587,4.866-3,7.293-4.508,1.438-.893,1.453-1.378.34-2.645h-.766Z"></path>
      <path fill="#fff" d="M42.734,309.431c-3.601-2.26-7.317-4.322-10.878-6.659-7.261-4.767-14.633-9.364-21.959-14.03h-.767c-1.101,1.403-1.113,1.762.367,2.657,4.995,3.021,9.831,6.293,14.79,9.363,5.722,3.542,11.388,7.165,17.029,10.832.755.491,1.607,1.111,2.338.121.82-1.113-.104-1.771-.919-2.283Z"></path>
      <path fill="#fff" d="M42.882,329.342c.75-.404,1.537-1.159.918-2.191-.653-1.089-1.498-.359-2.132.053-3.51,2.276-6.952,4.65-10.584,6.747-5.001,2.887-9.629,6.376-14.658,9.237-2.54,1.445-4.919,3.17-7.372,4.769-.444.289-.872.626-.697,1.222.173.586.69.69,1.238.66.385.005.74-.057,1.086-.272,3.389-2.11,6.899-4.047,10.155-6.345,4.46-3.148,9.344-5.596,13.817-8.714,2.653-1.849,5.368-3.623,8.228-5.164Z"></path>
      <path fill="#fff" d="M102.941,347.527c-7.325-4.59-14.661-9.165-21.975-13.773-3.384-2.132-6.713-4.354-10.106-6.471-.667-.416-1.619-1.272-2.256-.038-.503.973.168,1.544,1.069,2.063,5.823,3.354,11.271,7.304,17.052,10.74,5.063,3.01,9.895,6.414,14.957,9.443.402.24.806.367,1.265.35.432-.037.942.077,1.18-.419.261-.543.02-.995-.401-1.351-.242-.204-.514-.375-.784-.544Z"></path>
      <path fill="#fff" d="M9.912,308.722c1.713.474,3.436.917,5.159,1.356,5.277,1.341,10.62,2.418,15.841,3.99,3.629,1.092,7.369,1.788,10.955,3.042.788.275,1.649.178,1.951-.672.292-.825-.214-1.477-1.08-1.689-3.617-.885-7.205-1.863-10.779-2.913-4.675-1.374-9.421-2.508-14.142-3.726-2.517-.649-5.044-1.258-7.541-1.878-.684.124-1.573-.231-1.763.766-.199,1.043.547,1.488,1.399,1.724Z"></path>
      <path fill="#fff" d="M70.154,317.162c2.748-.732,5.481-1.517,8.223-2.27,3.422-.94,6.839-1.894,10.299-2.697,4.756-1.104,9.481-2.341,14.213-3.549.688-.176,1.404-.507,1.248-1.417-.153-.89-.9-.958-1.771-.966-.181.021-.506.021-.812.099-4.919,1.25-9.845,2.476-14.75,3.78-3.062.814-6.081,1.786-9.139,2.617-2.682.729-5.397,1.331-8.082,2.049-.761.203-1.138.858-.962,1.642.183.812.883.886,1.532.713Z"></path>
      <path fill="#fff" d="M70.356,320.638c5.286-.007,10.572-.003,15.858-.003,5.098,0,10.195.013,15.293-.01,1.023-.005,2.543.321,2.596-1.143.061-1.686-1.558-1.315-2.621-1.318-9.75-.026-19.5-.017-29.249-.013-.637,0-1.276.003-1.909.065-.827.08-1.785.125-1.767,1.281.019,1.182.939,1.142,1.798,1.14Z"></path>
      <path fill="#fff" d="M9.692,332.589c1.72.103,2.99-.793,4.401-1.095,7.317-1.568,14.562-3.414,21.773-5.404,2.076-.573,4.182-1.037,6.251-1.632.887-.255,2.118-.606,1.755-1.807-.364-1.203-1.515-.844-2.425-.488-.71.278-1.424.479-2.173.65-3.334.761-6.645,1.627-9.964,2.456-3.314.828-6.638,1.622-9.941,2.495-3.239.856-6.46,1.781-9.681,2.705-.683.196-1.407.534-1.318,1.4.094.916.92.663,1.32.72Z"></path>
      <path fill="#fff" d="M69.525,324.141c1.211.361,2.414.76,3.638,1.074,8.409,2.15,16.817,4.306,25.241,6.399,1.408.35,2.737,1.068,4.377.993.474-.037,1.232.185,1.415-.706.178-.868-.569-1.027-1.124-1.29-.283-.134-.6-.2-.906-.282-1.956-.528-3.933-.987-5.866-1.588-7.138-2.219-14.47-3.681-21.68-5.622-1.524-.41-3.059-.796-4.606-1.104-.611-.122-1.36-.084-1.52.757-.146.767.351,1.167,1.031,1.369Z"></path>
      <path fill="#fff" d="M10.62,320.633c.446.005.893.002,1.34.002h14.163c5.098,0,10.195.007,15.293-.006.987-.002,2.411.241,2.42-1.135.009-1.458-1.468-1.332-2.523-1.333-10.208-.019-20.416-.018-30.624,0-.988.002-2.346-.127-2.31,1.3.032,1.239,1.28,1.163,2.241,1.173Z"></path>
      <path fill="#fff" d="M50.218,327.032c-.685.207-1.093.746-1.442,1.413-1.766,3.38-4.021,6.457-6.111,9.636-2.123,3.23-4.257,6.453-6.354,9.7-.37.573-.827,1.352-.005,1.854.848.518,1.51.094,2.051-.732,4.107-6.266,8.255-12.505,12.366-18.769.413-.63.661-1.369.962-2.008-.136-.94-.637-1.346-1.467-1.095Z"></path>
      <path fill="#fff" d="M61.899,312.049c.863-.038,1.115-.719,1.457-1.214,1.187-1.722,2.298-3.496,3.465-5.231,3.088-4.593,5.82-9.418,9.086-13.896.555-.761,1.264-1.805.146-2.48-1.075-.648-1.686.446-2.201,1.24-.483.745-.82,1.594-1.354,2.297-4.006,5.277-7.119,11.15-11.016,16.5-.294.403-.525.896-.633,1.382-.193.873.312,1.292,1.05,1.404Z"></path>
      <path fill="#fff" d="M38.374,290.106c-.457-.664-.957-1.405-1.809-.953-.976.519-.63,1.501-.196,2.185,1.936,3.049,3.885,6.094,5.952,9.055,2.248,3.22,4.33,6.541,6.343,9.907.4.669.766,1.319,1.567,1.563.891.272,1.287-.211,1.569-1.125-.379-.691-.725-1.523-1.241-2.232-4.336-5.952-8.017-12.338-12.186-18.4Z"></path>
      <path fill="#fff" d="M70.2,338.586c-2.121-3.525-4.51-6.889-6.792-10.316-.387-.581-.808-1.147-1.471-1.277-.981-.027-1.428.79-.863,1.79,1.026,1.815,2.191,3.553,3.331,5.302,3.146,4.83,6.308,9.65,9.464,14.473.519.792,1.234,1.504,2.174,1.007,1.212-.64.361-1.64-.059-2.265-1.945-2.893-3.98-5.717-5.784-8.714Z"></path>
      <path fill="#fff" d="M57.521,300.63c0-3.317,0-6.635,0-9.952,0-.744-.12-1.545-1.02-1.551-.835-.005-1.377.588-1.452,1.482-.021.254-.021.51-.021.765,0,6.125.005,12.249-.007,18.373-.002,1.033.115,2.086,1.378,2.088,1.286.002,1.13-1.157,1.137-2.02.023-3.062.009-6.124.009-9.186h-.024Z"></path>
      <path fill="#fff" d="M57.543,338.386h.005c0-1.403.006-2.806-.001-4.209-.011-1.977-.025-3.954-.051-5.93-.007-.549-.212-1.02-.8-1.149-.654-.145-1.083.231-1.423.74-.266.397-.24.851-.24,1.293-.004,6.187.002,12.373-.008,18.559-.001,1.068.254,2.032,1.496,1.99,1.192-.04,1.003-1.134,1.011-1.918.029-3.125.012-6.25.012-9.375Z"></path>
      <path fill="#fff" d="M56.29,316c-1.792-.006-3.263,1.554-3.267,3.462-.003,1.911,1.346,3.185,3.403,3.212,1.617.021,3.334-1.647,3.33-3.236-.004-1.534-1.919-3.434-3.466-3.439Z"></path>
      <rect fill="#fff" height="6.158" width="3.357"></rect>
      <rect fill="#fff" height="6.158" width="3.357" x="800.966"></rect>
    </g>
  </g>
</svg>